<svg width="474" height="96" fill="none" xmlns="http://www.w3.org/2000/svg"><rect width="473.734" height="96" rx="8" fill="#fff"/><path fill-rule="evenodd" clip-rule="evenodd" d="M361.5 63.64l-.001-.002h9.216l5.662-11.384 5.662 11.384h11.2l-16.863-32.557L360.37 61.99l-6.146-8.974c3.795-1.83 6.16-5 6.16-9.552v-.09c0-3.213-.982-5.534-2.857-7.41-2.187-2.186-5.713-3.57-11.248-3.57h-15.265V63.64h10.445v-8.928h2.231l5.892 8.928H361.5zm64.41-32.559l-16.86 32.557h11.2l5.661-11.384 5.662 11.384h11.2L425.91 31.081zM401.153 64.92l16.861-32.557h-11.2l-5.662 11.384-5.662-11.384h-11.199l16.862 32.557zm-55.186-17.661c2.499 0 4.017-1.116 4.017-3.035v-.09c0-2.008-1.563-2.99-3.972-2.99h-4.553v6.115h4.508zm-37.29-6.026h-9.195v-8.838h28.835v8.838h-9.195V63.64h-10.445V41.232zm-34.646 11.07l-5.58 6.65c3.973 3.483 9.686 5.268 16.024 5.268 8.392 0 13.793-4.018 13.793-10.58v-.088c0-6.294-5.356-8.615-13.346-10.088-3.303-.626-4.151-1.16-4.151-2.009v-.09c0-.758.714-1.294 2.276-1.294 2.901 0 6.428.938 9.374 3.08l5.089-7.052c-3.616-2.857-8.08-4.285-14.105-4.285-8.616 0-13.258 4.597-13.258 10.534v.09c0 6.605 6.16 8.614 13.168 10.042 3.348.67 4.329 1.16 4.329 2.054v.09c0 .847-.803 1.337-2.678 1.337-3.66 0-7.543-1.07-10.935-3.66z" fill="#FC5200"/><path d="M235.838 62.363V42.925h3.998v7.582h8.437v-7.582h3.998v19.438h-3.998v-8.327h-8.437v8.327h-3.998zm-13.919 0V46.426h-6.231v-3.501h16.487v3.501h-6.258v15.937h-3.998zm-13.88 0V42.925h3.998v19.438h-3.998zm-23.834 0l-5.129-19.438h4.219l2.205 10.477c.276 1.406.524 2.537.772 4.274h.111c.275-1.462.441-2.372.882-4.302l2.481-10.45h4.191l2.482 10.45c.441 1.93.606 2.84.882 4.302h.11c.249-1.737.497-2.868.772-4.274l2.234-10.477h4.191l-5.129 19.438h-4.163l-2.454-10.367c-.331-1.461-.551-2.426-.965-4.44h-.11c-.414 2.014-.634 2.979-.965 4.44l-2.454 10.367h-4.163zm-24.214 0V46.426h-6.231v-3.501h16.488v3.501h-6.259v15.937h-3.998zm-16.941.413c-5.487 0-9.099-4.025-9.099-10.146 0-6.093 3.612-10.119 9.099-10.119 4.329 0 7.582 2.537 8.106 6.176l-3.998.938c-.441-2.234-1.985-3.557-4.163-3.557-3.033 0-4.936 2.509-4.936 6.562 0 4.053 1.903 6.59 4.936 6.59 2.178 0 3.722-1.324 4.163-3.53l3.998.938c-.524 3.64-3.777 6.148-8.106 6.148zm-26.132-.413V42.925h13.483v3.391h-9.485v4.412h8.795v3.28h-8.795v4.964h9.485v3.39h-13.483zm-21.385 0V42.925h4.384l5.928 9.898c.91 1.489 1.517 2.757 2.178 4.163h.138l-.083-4.962v-9.1h3.805v19.439h-4.384l-5.955-9.898c-.882-1.49-1.489-2.73-2.178-4.164h-.11l.082 4.963v9.099h-3.805zm-21.386 0V42.925h4.383l5.928 9.898c.91 1.489 1.517 2.757 2.178 4.163h.138l-.082-4.962v-9.1h3.805v19.439h-4.384l-5.956-9.898c-.882-1.49-1.489-2.73-2.178-4.164h-.11l.082 4.963v9.099h-3.804zm-13.565.413c-5.652 0-9.264-4.135-9.264-10.146 0-5.983 3.612-10.119 9.265-10.119 5.652 0 9.264 4.136 9.264 10.12 0 6.01-3.612 10.145-9.264 10.145zm0-3.556c3.116 0 5.156-2.344 5.156-6.59s-2.04-6.562-5.155-6.562c-3.116 0-5.156 2.316-5.156 6.562s2.04 6.59 5.156 6.59zm-20.608 3.556c-5.487 0-9.099-4.025-9.099-10.146 0-6.093 3.612-10.119 9.099-10.119 4.329 0 7.582 2.537 8.106 6.176l-3.998.938c-.441-2.234-1.985-3.557-4.163-3.557-3.033 0-4.936 2.509-4.936 6.562 0 4.053 1.903 6.59 4.936 6.59 2.178 0 3.722-1.324 4.163-3.53l3.998.938c-.524 3.64-3.777 6.148-8.106 6.148z" fill="#000"/></svg>